# xmcd
# 
# Track frame offsets:
#     150
#     16252
#     37258
#     81423
#     94982
#     109330
#     129371
#     143141
#     155083
# 
# Disc length: 2207
# 
# Revision: 0
# Processed by: cddbd v1.5.2PL0 Copyright (c) Steve Scherf et al.
# Submitted via: BonkEnc v1.0.8
# 
DISCID=7b089d09
DTITLE=Airto Moreira - Natural Feelings
DYEAR=1970
DGENRE=Brazil
TTITLE0=Alue
TTITLE1=Xibaba (She - ba - ba)
TTITLE2=Terror
TTITLE3=Bebé
TTITLE4=Andei
TTITLE5=Mixing
TTITLE6=The Tunnel
TTITLE7=Frevo
TTITLE8=Liamba
EXTD=YEAR: 1970
EXTT0=
EXTT1=
EXTT2=
EXTT3=
EXTT4=
EXTT5=
EXTT6=
EXTT7=
EXTT8=
PLAYORDER=
